<svg width="20" height="18" fill="none" xmlns="http://www.w3.org/2000/svg"><path d="M20 2.799a8.55 8.55 0 01-2.363.647 4.077 4.077 0 001.804-2.266 8.194 8.194 0 01-2.6.992A4.099 4.099 0 009.75 4.976c0 .325.027.638.095.935-3.409-.166-6.425-1.8-8.451-4.288A4.128 4.128 0 00.83 3.694c0 1.42.732 2.679 1.821 3.408A4.05 4.05 0 01.8 6.598v.045a4.119 4.119 0 003.285 4.028 4.09 4.09 0 01-1.075.135c-.262 0-.527-.015-.776-.07.531 1.624 2.038 2.818 3.831 2.856a8.239 8.239 0 01-5.084 1.75c-.336 0-.658-.016-.981-.057a11.544 11.544 0 006.29 1.84c7.545 0 11.67-6.25 11.67-11.668 0-.18-.006-.356-.015-.53A8.18 8.18 0 0020 2.8z" fill="#AFB1B8"/></svg>